<?xml version="1.0" encoding="UTF-8" standalone="no"?>
<svg
   id="svg8"
   version="1.1"
   viewBox="0 0 6.3499999 6.3500002"
   height="24"
   width="24"
   xmlns="http://www.w3.org/2000/svg"
   xmlns:svg="http://www.w3.org/2000/svg"
   xmlns:rdf="http://www.w3.org/1999/02/22-rdf-syntax-ns#"
   xmlns:cc="http://creativecommons.org/ns#"
   xmlns:dc="http://purl.org/dc/elements/1.1/">
  <defs
     id="defs2" />
  <metadata
     id="metadata5">
    <rdf:RDF>
      <cc:Work
         rdf:about="">
        <dc:format>image/svg+xml</dc:format>
        <dc:type
           rdf:resource="http://purl.org/dc/dcmitype/StillImage" />
        <cc:license
           rdf:resource="http://creativecommons.org/publicdomain/zero/1.0/" />
      </cc:Work>
      <cc:License
         rdf:about="http://creativecommons.org/publicdomain/zero/1.0/">
        <cc:permits
           rdf:resource="http://creativecommons.org/ns#Reproduction" />
        <cc:permits
           rdf:resource="http://creativecommons.org/ns#Distribution" />
        <cc:permits
           rdf:resource="http://creativecommons.org/ns#DerivativeWorks" />
      </cc:License>
    </rdf:RDF>
  </metadata>
  <path
     id="path938"
     style="fill:#000000;fill-opacity:1;stroke:none;stroke-width:0.999999px;stroke-linecap:butt;stroke-linejoin:miter;stroke-opacity:1"
     d="M 1 3 L 1 5 L 1 20 L 13.230469 20 A 5.5000017 5.4999999 0 0 1 13.044922 19 L 2 19 L 2 8 L 21 8 L 21 13.603516 A 5.5000017 5.4999999 0 0 1 22 14.257812 L 22 5 L 9 5 L 7 3 L 1 3 z "
     transform="scale(0.26458334)" />
  <circle
     style="fill:#ffffff;fill-opacity:1;stroke:none;stroke-width:0.1;stroke-linecap:round;stroke-linejoin:round"
     id="circle3183"
     cx="4.8947921"
     cy="4.8947916"
     rx="1.4552084"
     ry="1.4552083" />
  <circle
     style="fill:#000000;fill-opacity:1;stroke:none;stroke-width:0.1;stroke-linecap:round;stroke-linejoin:round"
     id="path2868"
     cx="4.8947921"
     cy="4.8947916"
     r="1.1906251" />
  <path
     style="fill:#ffffff;fill-opacity:1;stroke:none;stroke-width:0.264583px;stroke-linecap:butt;stroke-linejoin:miter;stroke-opacity:1"
     d="m 4.7625001,4.2333334 h 0.2645833 v 0.5291667 l 0.5291667,-10e-8 v 0.2645833 l -0.5291667,1e-7 V 5.55625 H 4.7625001 V 5.0270834 H 4.2333334 V 4.7625001 h 0.5291667 z"
     id="path2903" />
</svg>
