<?xml version="1.0" encoding="UTF-8" standalone="no"?>
<svg
   xmlns:dc="http://purl.org/dc/elements/1.1/"
   xmlns:cc="http://creativecommons.org/ns#"
   xmlns:rdf="http://www.w3.org/1999/02/22-rdf-syntax-ns#"
   xmlns:svg="http://www.w3.org/2000/svg"
   xmlns="http://www.w3.org/2000/svg"
   id="svg8"
   version="1.1"
   viewBox="0 0 6.3499999 6.3500002"
   height="24"
   width="24">
  <defs
     id="defs2" />
  <metadata
     id="metadata5">
    <rdf:RDF>
      <cc:Work
         rdf:about="">
        <dc:format>image/svg+xml</dc:format>
        <dc:type
           rdf:resource="http://purl.org/dc/dcmitype/StillImage" />
        <dc:title></dc:title>
        <cc:license
           rdf:resource="http://creativecommons.org/publicdomain/zero/1.0/" />
      </cc:Work>
      <cc:License
         rdf:about="http://creativecommons.org/publicdomain/zero/1.0/">
        <cc:permits
           rdf:resource="http://creativecommons.org/ns#Reproduction" />
        <cc:permits
           rdf:resource="http://creativecommons.org/ns#Distribution" />
        <cc:permits
           rdf:resource="http://creativecommons.org/ns#DerivativeWorks" />
      </cc:License>
    </rdf:RDF>
  </metadata>
  <g
     transform="translate(0,-290.64999)"
     id="layer1">
    <path
       id="rect817"
       transform="matrix(0.26458333,0,0,0.26458333,0,290.64999)"
       d="M 7 2 L 7 4 L 7 6 L 2 6 L 2 8 L 5 8 L 5 22 L 7 22 L 17 22 L 19 22 L 19 8 L 22 8 L 22 6 L 17 6 L 17 4 L 17 2 L 7 2 z M 9 4 L 15 4 L 15 6 L 9 6 L 9 4 z M 7 8 L 17 8 L 17 20 L 7 20 L 7 8 z M 9 10 L 9 18 L 11 18 L 11 10 L 9 10 z M 13 10 L 13 18 L 15 18 L 15 10 L 13 10 z "
       style="opacity:1;fill:#000000;fill-opacity:1;stroke:none;stroke-width:0.15494442;stroke-linecap:round;stroke-linejoin:round;stroke-miterlimit:4;stroke-dasharray:none;stroke-dashoffset:0;stroke-opacity:1;paint-order:markers fill stroke" />
  </g>
</svg>
