<?xml version="1.0" encoding="UTF-8" standalone="no"?>
<svg
   xmlns:dc="http://purl.org/dc/elements/1.1/"
   xmlns:cc="http://creativecommons.org/ns#"
   xmlns:rdf="http://www.w3.org/1999/02/22-rdf-syntax-ns#"
   xmlns:svg="http://www.w3.org/2000/svg"
   xmlns="http://www.w3.org/2000/svg"
   width="24"
   height="24"
   viewBox="0 0 6.3499999 6.3500002"
   version="1.1"
   id="svg8">
  <defs
     id="defs2" />
  <metadata
     id="metadata5">
    <rdf:RDF>
      <cc:Work
         rdf:about="">
        <dc:format>image/svg+xml</dc:format>
        <dc:type
           rdf:resource="http://purl.org/dc/dcmitype/StillImage" />
        <dc:title></dc:title>
        <cc:license
           rdf:resource="http://creativecommons.org/publicdomain/zero/1.0/" />
      </cc:Work>
      <cc:License
         rdf:about="http://creativecommons.org/publicdomain/zero/1.0/">
        <cc:permits
           rdf:resource="http://creativecommons.org/ns#Reproduction" />
        <cc:permits
           rdf:resource="http://creativecommons.org/ns#Distribution" />
        <cc:permits
           rdf:resource="http://creativecommons.org/ns#DerivativeWorks" />
      </cc:License>
    </rdf:RDF>
  </metadata>
  <g
     id="g926">
    <path
       id="path922"
       transform="scale(0.26458334)"
       d="M 11 2 L 10.189453 5.2460938 C 9.5919896 5.4059435 9.0270578 5.6406772 8.5039062 5.9433594 L 5.6367188 4.2226562 L 4.2226562 5.6367188 L 5.9433594 8.5039062 C 5.6406757 9.0270569 5.4059445 9.5919895 5.2460938 10.189453 L 2 11 L 2 13 L 5.2460938 13.810547 C 5.4059445 14.408011 5.6406757 14.972943 5.9433594 15.496094 L 4.2226562 18.363281 L 5.6367188 19.777344 L 8.5039062 18.056641 C 9.0270578 18.359323 9.5919896 18.594057 10.189453 18.753906 L 11 22 L 13 22 L 13.810547 18.753906 C 14.40801 18.594057 14.972942 18.359323 15.496094 18.056641 L 18.363281 19.777344 L 19.777344 18.363281 L 18.056641 15.496094 C 18.359324 14.972943 18.594056 14.408011 18.753906 13.810547 L 22 13 L 22 11 L 18.753906 10.189453 C 18.594056 9.5919895 18.359324 9.0270569 18.056641 8.5039062 L 19.777344 5.6367188 L 18.363281 4.2226562 L 15.496094 5.9433594 C 14.972942 5.6406772 14.40801 5.4059435 13.810547 5.2460938 L 13 2 L 11 2 z M 12 8.0253906 C 14.194762 8.0253906 15.974611 9.8052291 15.974609 12 C 15.974611 14.194771 14.194762 15.974609 12 15.974609 C 9.8052378 15.974609 8.0253891 14.194771 8.0253906 12 C 8.0253891 9.8052291 9.8052378 8.0253906 12 8.0253906 z "
       style="opacity:1;fill:none;fill-opacity:1;stroke:#ffffff;stroke-width:0.99999994;stroke-linecap:round;stroke-linejoin:round;stroke-miterlimit:4;stroke-dasharray:none;stroke-dashoffset:0;stroke-opacity:1;paint-order:stroke fill markers" />
    <path
       style="opacity:1;fill:#000000;fill-opacity:1;stroke:none;stroke-width:0.99999994;stroke-linecap:round;stroke-linejoin:round;stroke-miterlimit:4;stroke-dasharray:none;stroke-dashoffset:0;stroke-opacity:1;paint-order:stroke fill markers"
       d="M 11 2 L 10.189453 5.2460938 C 9.5919896 5.4059435 9.0270578 5.6406772 8.5039062 5.9433594 L 5.6367188 4.2226562 L 4.2226562 5.6367188 L 5.9433594 8.5039062 C 5.6406757 9.0270569 5.4059445 9.5919895 5.2460938 10.189453 L 2 11 L 2 13 L 5.2460938 13.810547 C 5.4059445 14.408011 5.6406757 14.972943 5.9433594 15.496094 L 4.2226562 18.363281 L 5.6367188 19.777344 L 8.5039062 18.056641 C 9.0270578 18.359323 9.5919896 18.594057 10.189453 18.753906 L 11 22 L 13 22 L 13.810547 18.753906 C 14.40801 18.594057 14.972942 18.359323 15.496094 18.056641 L 18.363281 19.777344 L 19.777344 18.363281 L 18.056641 15.496094 C 18.359324 14.972943 18.594056 14.408011 18.753906 13.810547 L 22 13 L 22 11 L 18.753906 10.189453 C 18.594056 9.5919895 18.359324 9.0270569 18.056641 8.5039062 L 19.777344 5.6367188 L 18.363281 4.2226562 L 15.496094 5.9433594 C 14.972942 5.6406772 14.40801 5.4059435 13.810547 5.2460938 L 13 2 L 11 2 z M 12 8.0253906 C 14.194762 8.0253906 15.974611 9.8052291 15.974609 12 C 15.974611 14.194771 14.194762 15.974609 12 15.974609 C 9.8052378 15.974609 8.0253891 14.194771 8.0253906 12 C 8.0253891 9.8052291 9.8052378 8.0253906 12 8.0253906 z "
       transform="scale(0.26458334)"
       id="path878" />
  </g>
</svg>
