<?xml version="1.0" encoding="UTF-8" standalone="no"?>
<svg
   xmlns:dc="http://purl.org/dc/elements/1.1/"
   xmlns:cc="http://creativecommons.org/ns#"
   xmlns:rdf="http://www.w3.org/1999/02/22-rdf-syntax-ns#"
   xmlns:svg="http://www.w3.org/2000/svg"
   xmlns="http://www.w3.org/2000/svg"
   id="svg8"
   version="1.1"
   viewBox="0 0 6.3499999 6.3500002"
   height="24"
   width="24">
  <defs
     id="defs2" />
  <metadata
     id="metadata5">
    <rdf:RDF>
      <cc:Work
         rdf:about="">
        <dc:format>image/svg+xml</dc:format>
        <dc:type
           rdf:resource="http://purl.org/dc/dcmitype/StillImage" />
        <dc:title></dc:title>
        <cc:license
           rdf:resource="http://creativecommons.org/publicdomain/zero/1.0/" />
      </cc:Work>
      <cc:License
         rdf:about="http://creativecommons.org/publicdomain/zero/1.0/">
        <cc:permits
           rdf:resource="http://creativecommons.org/ns#Reproduction" />
        <cc:permits
           rdf:resource="http://creativecommons.org/ns#Distribution" />
        <cc:permits
           rdf:resource="http://creativecommons.org/ns#DerivativeWorks" />
      </cc:License>
    </rdf:RDF>
  </metadata>
  <g
     transform="translate(0,-290.64999)"
     id="layer1">
    <path
       transform="matrix(0.26458333,0,0,0.26458333,0,290.64999)"
       style="opacity:1;fill:none;fill-opacity:1;stroke:#ffffff;stroke-width:1.00000001;stroke-linecap:round;stroke-linejoin:round;stroke-miterlimit:4;stroke-dasharray:none;stroke-dashoffset:0;stroke-opacity:1;paint-order:stroke fill markers"
       d="M 9 2 A 6.9999999 6.9999999 0 0 0 2 9 A 6.9999999 6.9999999 0 0 0 9 16 A 6.9999999 6.9999999 0 0 0 16 9 A 6.9999999 6.9999999 0 0 0 9 2 z M 9 4 A 5.0000002 4.9999966 0 0 1 14 9 A 5.0000002 4.9999966 0 0 1 9 14 A 5.0000002 4.9999966 0 0 1 4 9 A 5.0000002 4.9999966 0 0 1 9 4 z M 15.636719 14.222656 L 14.222656 15.636719 L 20.585938 22 L 22 20.585938 L 15.636719 14.222656 z "
       id="path932" />
    <path
       id="path878"
       transform="matrix(0.26458333,0,0,0.26458333,0,290.64999)"
       d="M 9 2 A 6.9999999 6.9999999 0 0 0 2 9 A 6.9999999 6.9999999 0 0 0 9 16 A 6.9999999 6.9999999 0 0 0 16 9 A 6.9999999 6.9999999 0 0 0 9 2 z M 9 4 A 5.0000002 4.9999966 0 0 1 14 9 A 5.0000002 4.9999966 0 0 1 9 14 A 5.0000002 4.9999966 0 0 1 4 9 A 5.0000002 4.9999966 0 0 1 9 4 z M 15.636719 14.222656 L 14.222656 15.636719 L 20.585938 22 L 22 20.585938 L 15.636719 14.222656 z "
       style="opacity:1;fill:#000000;fill-opacity:1;stroke:none;stroke-width:1.00000001;stroke-linecap:round;stroke-linejoin:round;stroke-miterlimit:4;stroke-dasharray:none;stroke-dashoffset:0;stroke-opacity:1;paint-order:stroke fill markers" />
  </g>
</svg>
